<svg width="26" height="25" viewBox="0 0 26 25" fill="none" xmlns="http://www.w3.org/2000/svg">
<path d="M12.8372 14.3255C13.0396 14.3255 13.2374 14.2654 13.4057 14.153C13.5739 14.0406 13.7051 13.8808 13.7825 13.6938C13.86 13.5068 13.8802 13.3011 13.8408 13.1026C13.8013 12.9041 13.7038 12.7218 13.5607 12.5786C13.4176 12.4355 13.2353 12.3381 13.0368 12.2986C12.8383 12.2591 12.6326 12.2794 12.4456 12.3568C12.2586 12.4343 12.0988 12.5654 11.9864 12.7337C11.8739 12.902 11.8139 13.0998 11.8139 13.3022C11.8139 13.5736 11.9217 13.8339 12.1136 14.0258C12.3055 14.2176 12.5658 14.3255 12.8372 14.3255ZM17.9535 14.3255C18.1558 14.3255 18.3537 14.2654 18.5219 14.153C18.6902 14.0406 18.8214 13.8808 18.8988 13.6938C18.9763 13.5068 18.9965 13.3011 18.957 13.1026C18.9176 12.9041 18.8201 12.7218 18.677 12.5786C18.5339 12.4355 18.3516 12.3381 18.1531 12.2986C17.9546 12.2591 17.7488 12.2794 17.5619 12.3568C17.3749 12.4343 17.2151 12.5654 17.1026 12.7337C16.9902 12.902 16.9302 13.0998 16.9302 13.3022C16.9302 13.5736 17.038 13.8339 17.2299 14.0258C17.4218 14.2176 17.6821 14.3255 17.9535 14.3255ZM12.8372 18.4185C13.0396 18.4185 13.2374 18.3585 13.4057 18.246C13.5739 18.1336 13.7051 17.9738 13.7825 17.7868C13.86 17.5998 13.8802 17.3941 13.8408 17.1956C13.8013 16.9971 13.7038 16.8148 13.5607 16.6717C13.4176 16.5286 13.2353 16.4311 13.0368 16.3916C12.8383 16.3521 12.6326 16.3724 12.4456 16.4499C12.2586 16.5273 12.0988 16.6585 11.9864 16.8267C11.8739 16.995 11.8139 17.1928 11.8139 17.3952C11.8139 17.6666 11.9217 17.9269 12.1136 18.1188C12.3055 18.3107 12.5658 18.4185 12.8372 18.4185ZM17.9535 18.4185C18.1558 18.4185 18.3537 18.3585 18.5219 18.246C18.6902 18.1336 18.8214 17.9738 18.8988 17.7868C18.9763 17.5998 18.9965 17.3941 18.957 17.1956C18.9176 16.9971 18.8201 16.8148 18.677 16.6717C18.5339 16.5286 18.3516 16.4311 18.1531 16.3916C17.9546 16.3521 17.7488 16.3724 17.5619 16.4499C17.3749 16.5273 17.2151 16.6585 17.1026 16.8267C16.9902 16.995 16.9302 17.1928 16.9302 17.3952C16.9302 17.6666 17.038 17.9269 17.2299 18.1188C17.4218 18.3107 17.6821 18.4185 17.9535 18.4185ZM7.72089 14.3255C7.92327 14.3255 8.12111 14.2654 8.28938 14.153C8.45766 14.0406 8.58881 13.8808 8.66626 13.6938C8.74371 13.5068 8.76397 13.3011 8.72449 13.1026C8.68501 12.9041 8.58755 12.7218 8.44444 12.5786C8.30134 12.4355 8.11901 12.3381 7.92052 12.2986C7.72203 12.2591 7.51629 12.2794 7.32931 12.3568C7.14233 12.4343 6.98252 12.5654 6.87009 12.7337C6.75765 12.902 6.69764 13.0998 6.69764 13.3022C6.69764 13.5736 6.80544 13.8339 6.99734 14.0258C7.18924 14.2176 7.44951 14.3255 7.72089 14.3255ZM20 4.0929H18.9767V3.06964C18.9767 2.79826 18.8689 2.53799 18.677 2.34609C18.4851 2.15419 18.2248 2.04639 17.9535 2.04639C17.6821 2.04639 17.4218 2.15419 17.2299 2.34609C17.038 2.53799 16.9302 2.79826 16.9302 3.06964V4.0929H8.74415V3.06964C8.74415 2.79826 8.63634 2.53799 8.44444 2.34609C8.25255 2.15419 7.99228 2.04639 7.72089 2.04639C7.44951 2.04639 7.18924 2.15419 6.99734 2.34609C6.80544 2.53799 6.69764 2.79826 6.69764 3.06964V4.0929H5.67438C4.86023 4.0929 4.07942 4.41632 3.50373 4.99201C2.92804 5.56771 2.60461 6.34851 2.60461 7.16267V19.4417C2.60461 20.2559 2.92804 21.0367 3.50373 21.6124C4.07942 22.1881 4.86023 22.5115 5.67438 22.5115H20C20.8141 22.5115 21.5949 22.1881 22.1706 21.6124C22.7463 21.0367 23.0697 20.2559 23.0697 19.4417V7.16267C23.0697 6.34851 22.7463 5.56771 22.1706 4.99201C21.5949 4.41632 20.8141 4.0929 20 4.0929ZM21.0232 19.4417C21.0232 19.7131 20.9154 19.9734 20.7235 20.1653C20.5316 20.3572 20.2713 20.465 20 20.465H5.67438C5.403 20.465 5.14273 20.3572 4.95083 20.1653C4.75893 19.9734 4.65113 19.7131 4.65113 19.4417V10.2324H21.0232V19.4417ZM21.0232 8.18592H4.65113V7.16267C4.65113 6.89128 4.75893 6.63101 4.95083 6.43912C5.14273 6.24722 5.403 6.13941 5.67438 6.13941H20C20.2713 6.13941 20.5316 6.24722 20.7235 6.43912C20.9154 6.63101 21.0232 6.89128 21.0232 7.16267V8.18592ZM7.72089 18.4185C7.92327 18.4185 8.12111 18.3585 8.28938 18.246C8.45766 18.1336 8.58881 17.9738 8.66626 17.7868C8.74371 17.5998 8.76397 17.3941 8.72449 17.1956C8.68501 16.9971 8.58755 16.8148 8.44444 16.6717C8.30134 16.5286 8.11901 16.4311 7.92052 16.3916C7.72203 16.3521 7.51629 16.3724 7.32931 16.4499C7.14233 16.5273 6.98252 16.6585 6.87009 16.8267C6.75765 16.995 6.69764 17.1928 6.69764 17.3952C6.69764 17.6666 6.80544 17.9269 6.99734 18.1188C7.18924 18.3107 7.44951 18.4185 7.72089 18.4185Z" fill="#848484"/>
</svg>
