<svg width="34" height="34" viewBox="0 0 34 34" fill="none" xmlns="http://www.w3.org/2000/svg">
<g id="u:plane-departure">
<path id="Vector" d="M31.1667 7.19647C31.1679 6.33262 30.9127 5.48785 30.4333 4.7692C29.9539 4.05055 29.272 3.49037 28.474 3.15962C27.676 2.82888 26.7977 2.74246 25.9505 2.91132C25.1033 3.08018 24.3253 3.49671 23.7151 4.10814L19.7342 8.08897L10.5401 5.02897C10.2953 4.95203 10.0342 4.94303 9.78468 5.00291C9.53517 5.06279 9.3066 5.18932 9.1234 5.36897L5.75173 8.71231C5.59197 8.87392 5.47344 9.07159 5.40613 9.28863C5.33882 9.50568 5.32471 9.73574 5.36499 9.95938C5.40528 10.183 5.49877 10.3937 5.63759 10.5736C5.7764 10.7535 5.95646 10.8974 6.16256 10.9931L13.5009 14.3223L9.81756 18.0056L7.39506 16.7873C7.13351 16.6458 6.83404 16.5901 6.53909 16.6282C6.24414 16.6664 5.96868 16.7964 5.75173 16.9998L3.24423 19.564C2.98038 19.8294 2.83228 20.1885 2.83228 20.5627C2.83228 20.937 2.98038 21.296 3.24423 21.5615L12.4384 30.7556C12.7038 31.0195 13.0629 31.1676 13.4371 31.1676C13.8114 31.1676 14.1705 31.0195 14.4359 30.7556L17.0001 28.2481C17.2127 28.0377 17.3532 27.7654 17.4016 27.4702C17.4499 27.175 17.4036 26.8721 17.2692 26.6048L16.0509 24.1823L19.7342 20.499L23.0634 27.8373C23.1591 28.0434 23.303 28.2235 23.4829 28.3623C23.6628 28.5011 23.8735 28.5946 24.0972 28.6349C24.3208 28.6752 24.5509 28.6611 24.7679 28.5937C24.9849 28.5264 25.1826 28.4079 25.3442 28.2481L28.6876 24.9048C28.8672 24.7216 28.9937 24.493 29.0536 24.2435C29.1135 23.994 29.1045 23.7329 29.0276 23.4881L25.9676 14.294L29.8917 10.2848C30.2986 9.88044 30.6209 9.3991 30.8398 8.86887C31.0587 8.33863 31.1699 7.77011 31.1667 7.19647ZM27.8801 8.28731L23.2901 12.8773C23.1104 13.0605 22.9839 13.2891 22.924 13.5386C22.8641 13.7881 22.8731 14.0492 22.9501 14.294L26.0101 23.474L24.7351 24.749L21.4059 17.4248C21.3114 17.2168 21.168 17.0347 20.9879 16.8941C20.8079 16.7535 20.5964 16.6585 20.3717 16.6173C20.1452 16.576 19.9119 16.5905 19.6922 16.6596C19.4725 16.7287 19.273 16.8503 19.1109 17.014L13.2742 22.9073C13.0647 23.1166 12.926 23.3864 12.8777 23.6786C12.8295 23.9708 12.874 24.2709 13.0051 24.5365L14.1667 26.9165L13.3734 27.7098L6.24756 20.5698L7.0834 19.8331L9.5059 21.0515C9.77151 21.1825 10.0715 21.2271 10.3638 21.1788C10.656 21.1305 10.9257 20.9919 11.1351 20.7823L17.0001 14.889C17.1628 14.7275 17.284 14.5289 17.3531 14.3102C17.4222 14.0916 17.4372 13.8594 17.3968 13.6337C17.3564 13.408 17.2618 13.1954 17.1211 13.0143C16.9804 12.8332 16.7979 12.689 16.5892 12.594L9.2084 9.26481L10.4834 7.98981L19.6634 11.0498C19.9082 11.1267 20.1693 11.1358 20.4188 11.0759C20.6683 11.016 20.8969 10.8895 21.0801 10.7098L25.6701 6.11981C25.8112 5.97545 25.9798 5.86075 26.1659 5.78245C26.352 5.70414 26.5519 5.6638 26.7538 5.6638C26.9557 5.6638 27.1556 5.70414 27.3417 5.78245C27.5278 5.86075 27.6964 5.97545 27.8376 6.11981C27.9853 6.25672 28.1022 6.42357 28.1804 6.60924C28.2586 6.7949 28.2962 6.9951 28.2909 7.19647C28.2986 7.3965 28.2662 7.59605 28.1956 7.78338C28.1251 7.97071 28.0178 8.14204 27.8801 8.28731Z" fill="#D16FFF"/>
</g>
</svg>
