<svg width="15" height="14" viewBox="0 0 15 14" fill="none" xmlns="http://www.w3.org/2000/svg">
<g id="u:location-point">
<path id="Vector" d="M10.697 2.54865C9.79172 1.64336 8.56388 1.13477 7.2836 1.13477C6.00332 1.13477 4.77548 1.64336 3.87018 2.54865C2.96489 3.45394 2.4563 4.68179 2.4563 5.96207C2.4563 7.24235 2.96489 8.47019 3.87018 9.37549L6.8683 12.3793C6.92119 12.4326 6.98411 12.4749 7.05344 12.5038C7.12276 12.5327 7.19712 12.5476 7.27222 12.5476C7.34732 12.5476 7.42168 12.5327 7.49101 12.5038C7.56034 12.4749 7.62326 12.4326 7.67614 12.3793L10.697 9.34704C11.5985 8.44551 12.105 7.22279 12.105 5.94785C12.105 4.6729 11.5985 3.45018 10.697 2.54865ZM9.88349 8.53351L7.2836 11.1448L4.68371 8.53351C4.17008 8.0194 3.82039 7.36455 3.67886 6.65174C3.53733 5.93893 3.6103 5.20016 3.88856 4.52882C4.16682 3.85748 4.63787 3.2837 5.24217 2.88002C5.84646 2.47634 6.55687 2.26089 7.2836 2.26089C8.01033 2.26089 8.72074 2.47634 9.32503 2.88002C9.92933 3.2837 10.4004 3.85748 10.6786 4.52882C10.9569 5.20016 11.0299 5.93893 10.8883 6.65174C10.7468 7.36455 10.3971 8.0194 9.88349 8.53351ZM5.57689 4.21554C5.11762 4.67622 4.85973 5.30019 4.85973 5.95069C4.85973 6.60119 5.11762 7.22516 5.57689 7.68584C5.9181 8.02763 6.35264 8.26105 6.826 8.35681C7.29937 8.45257 7.79047 8.40641 8.23769 8.22411C8.68492 8.04182 9.06835 7.73152 9.33989 7.33213C9.61143 6.93274 9.75897 6.46206 9.76402 5.97914C9.76658 5.65668 9.70447 5.33699 9.58135 5.03896C9.45822 4.74093 9.2766 4.47061 9.0472 4.24398C8.82173 4.01334 8.55287 3.82956 8.2561 3.70322C7.95932 3.57688 7.6405 3.51048 7.31796 3.50784C6.99543 3.50519 6.67556 3.56636 6.37675 3.68781C6.07795 3.80927 5.80611 3.98862 5.57689 4.21554ZM8.24505 6.878C8.02946 7.09688 7.74453 7.23408 7.43898 7.26614C7.13344 7.29819 6.82624 7.22312 6.56992 7.05375C6.31359 6.88438 6.12406 6.63124 6.03372 6.33759C5.94339 6.04395 5.95786 5.72804 6.07466 5.44389C6.19146 5.15973 6.40334 4.92497 6.67407 4.77974C6.9448 4.63451 7.25757 4.58783 7.55891 4.64768C7.86025 4.70754 8.13144 4.87021 8.32612 5.10788C8.5208 5.34555 8.62687 5.64347 8.62621 5.95069C8.61793 6.30186 8.47061 6.63538 8.2166 6.878H8.24505Z" fill="#848484"/>
</g>
</svg>
