<svg width="12" height="10" viewBox="0 0 12 10" fill="none" xmlns="http://www.w3.org/2000/svg">
<path id="Vector" d="M6.05045 4.66902C6.33615 4.42172 6.5653 4.11585 6.72236 3.77217C6.87941 3.4285 6.9607 3.05505 6.96069 2.67719C6.96069 1.96716 6.67863 1.2862 6.17656 0.784131C5.67449 0.28206 4.99354 9.57958e-08 4.2835 9.57958e-08C3.57347 9.57958e-08 2.89252 0.28206 2.39044 0.784131C1.88837 1.2862 1.60631 1.96716 1.60631 2.67719C1.60631 3.05505 1.68759 3.4285 1.84465 3.77217C2.00171 4.11585 2.23086 4.42172 2.51656 4.66902C1.76702 5.00843 1.13109 5.55652 0.684815 6.24778C0.238535 6.93904 0.000788087 7.74421 0 8.56701C0 8.70902 0.056412 8.84521 0.156826 8.94562C0.25724 9.04604 0.393431 9.10245 0.535438 9.10245C0.677445 9.10245 0.813636 9.04604 0.91405 8.94562C1.01446 8.84521 1.07088 8.70902 1.07088 8.56701C1.07088 7.71497 1.40935 6.89782 2.01183 6.29534C2.61432 5.69285 3.43146 5.35438 4.2835 5.35438C5.13555 5.35438 5.95269 5.69285 6.55518 6.29534C7.15766 6.89782 7.49613 7.71497 7.49613 8.56701C7.49613 8.70902 7.55255 8.84521 7.65296 8.94562C7.75337 9.04604 7.88956 9.10245 8.03157 9.10245C8.17358 9.10245 8.30977 9.04604 8.41018 8.94562C8.5106 8.84521 8.56701 8.70902 8.56701 8.56701C8.56622 7.74421 8.32847 6.93904 7.88219 6.24778C7.43591 5.55652 6.79999 5.00843 6.05045 4.66902ZM4.2835 4.2835C3.96581 4.2835 3.65524 4.1893 3.39108 4.01279C3.12693 3.83629 2.92104 3.58542 2.79946 3.2919C2.67789 2.99838 2.64608 2.67541 2.70806 2.36381C2.77004 2.05222 2.92302 1.766 3.14767 1.54135C3.37232 1.31671 3.65853 1.16372 3.97013 1.10174C4.28172 1.03976 4.6047 1.07157 4.89821 1.19315C5.19173 1.31473 5.4426 1.52061 5.61911 1.78477C5.79561 2.04893 5.88982 2.35949 5.88982 2.67719C5.88982 3.10321 5.72058 3.51178 5.41934 3.81303C5.1181 4.11427 4.70953 4.2835 4.2835 4.2835ZM9.49867 4.45484C9.84133 4.06897 10.0652 3.59228 10.1432 3.08216C10.2213 2.57204 10.1503 2.05023 9.93868 1.57954C9.72709 1.10885 9.38398 0.709346 8.95063 0.429112C8.51729 0.148879 8.01219 -0.000137929 7.49613 9.57958e-08C7.35413 9.57958e-08 7.21794 0.0564121 7.11752 0.156826C7.01711 0.25724 6.96069 0.393431 6.96069 0.535438C6.96069 0.677445 7.01711 0.813636 7.11752 0.91405C7.21794 1.01446 7.35413 1.07088 7.49613 1.07088C7.92215 1.07088 8.33073 1.24011 8.63197 1.54135C8.93321 1.8426 9.10245 2.25117 9.10245 2.67719C9.10169 2.95842 9.02711 3.23453 8.88616 3.4779C8.74522 3.72126 8.54285 3.92336 8.29929 4.06397C8.2199 4.10977 8.1536 4.17517 8.10673 4.25392C8.05985 4.33267 8.03397 4.42213 8.03157 4.51374C8.02933 4.60464 8.05027 4.69461 8.09243 4.77517C8.13459 4.85574 8.19656 4.92424 8.27252 4.97422L8.48134 5.11343L8.55095 5.15091C9.19636 5.45703 9.74086 5.94122 10.1203 6.54643C10.4998 7.15165 10.6983 7.8527 10.6927 8.56701C10.6927 8.70902 10.7491 8.84521 10.8495 8.94562C10.9499 9.04604 11.0861 9.10245 11.2281 9.10245C11.3701 9.10245 11.5063 9.04604 11.6067 8.94562C11.7072 8.84521 11.7636 8.70902 11.7636 8.56701C11.768 7.74534 11.5622 6.9362 11.1657 6.21647C10.7693 5.49674 10.1955 4.89032 9.49867 4.45484Z" fill="#FCC719"/>
</svg>
