<svg width="76" height="76" viewBox="0 0 76 76" fill="none" xmlns="http://www.w3.org/2000/svg">
<g id="paw-svgrepo-com 1">
<path id="Vector" d="M71.9407 27.3809C71.1368 25.4705 69.8013 24.093 68.0777 23.3992L68.0545 23.3905C67.27 23.0832 66.4347 22.926 65.5922 22.927H65.4995C61.554 22.9864 57.5259 26.3395 55.4778 31.2714C53.9757 34.8781 53.8034 38.757 55.0172 41.648C55.8196 43.56 57.1579 44.9374 58.8888 45.6312L58.9077 45.6385C59.6923 45.9455 60.5275 46.1028 61.37 46.102C65.3532 46.102 69.4233 42.7489 71.5091 37.7517C72.9923 34.1495 73.1559 30.2735 71.9407 27.3809Z" fill="white"/>
<path id="Vector_2" d="M56.176 48.6529C53.9005 47.2856 51.7496 45.9921 50.3446 43.6688C46.4686 37.2378 44.1279 33.356 37.9909 33.356C31.8538 33.356 29.5074 37.2378 25.6227 43.6688C24.2148 45.995 22.0595 47.2899 19.7768 48.663C17.1595 50.236 14.4552 51.8612 13.2878 55.0593C12.8339 56.2122 12.6053 57.4414 12.6143 58.6804C12.6143 63.8875 16.6699 68.1242 21.6525 68.1242C24.2235 68.1242 26.9596 67.2334 29.855 66.2905C32.6389 65.3838 35.5169 64.4466 38.0054 64.4466C40.4938 64.4466 43.3646 65.3838 46.1383 66.2905C49.028 67.2276 51.751 68.1184 54.3292 68.1184C59.3046 68.1184 63.353 63.8817 63.353 58.6746C63.3571 57.4347 63.1235 56.2055 62.665 55.0535C61.4975 51.8525 58.7919 50.2259 56.176 48.6529Z" fill="white"/>
<path id="Vector_3" d="M22.6375 28.2645C24.3611 30.427 26.5482 31.6176 28.7962 31.6176C29.1031 31.6176 29.4096 31.5949 29.7131 31.5496C34.4017 30.8601 37.3232 25.1388 36.3643 18.5136C35.9631 15.7283 34.8912 13.1341 33.3559 11.2106C31.6352 9.05245 29.4451 7.86328 27.1986 7.86328C26.8917 7.86329 26.5853 7.88605 26.2817 7.93136C21.5931 8.62081 18.6717 14.3421 19.6305 20.9673C20.0303 23.7483 21.1021 26.3395 22.6375 28.2645Z" fill="white"/>
<path id="Vector_4" d="M46.2701 31.5498C46.5737 31.5951 46.8801 31.6178 47.187 31.6178C49.4364 31.6178 51.6221 30.4272 53.3458 28.2647C54.8796 26.3397 55.9457 23.7485 56.3513 20.9646C57.3101 14.3423 54.3886 8.62102 49.7 7.92867C49.3965 7.88336 49.0901 7.86061 48.7832 7.8606C46.5367 7.86349 44.3466 9.05266 42.6259 11.2108C41.0905 13.1344 40.0187 15.7285 39.6189 18.5167C38.6601 25.139 41.5816 30.8603 46.2701 31.5498Z" fill="white"/>
<path id="Vector_5" d="M17.0739 45.6385L17.0942 45.6312C18.8222 44.9374 20.1591 43.5614 20.9601 41.6509C22.1739 38.7541 22.003 34.8795 20.5038 31.2729C18.4282 26.2816 14.3596 22.927 10.3807 22.927C9.53813 22.9258 8.70284 23.083 7.91837 23.3905L7.89809 23.3978C6.17445 24.0858 4.83755 25.4676 4.03656 27.3781C2.82277 30.2749 2.99369 34.1495 4.49282 37.7561C6.56843 42.7474 10.6371 46.102 14.6159 46.102C15.4571 46.1027 16.2908 45.9454 17.0739 45.6385Z" fill="white"/>
</g>
</svg>
