<svg width="24" height="24" viewBox="0 0 24 24" fill="none" xmlns="http://www.w3.org/2000/svg">
<g id="File / Note_Edit">
<path id="Vector" d="M10.0771 4.26878H7.38479C6.30776 4.26878 5.76885 4.26878 5.35748 4.47838C4.99563 4.66276 4.70165 4.95673 4.51728 5.31859C4.30768 5.72995 4.30768 6.26887 4.30768 7.34589V16.5767C4.30768 17.6537 4.30768 18.1919 4.51728 18.6033C4.70165 18.9651 4.99563 19.2596 5.35748 19.444C5.76845 19.6534 6.30671 19.6534 7.38163 19.6534H16.6183C17.6933 19.6534 18.2307 19.6534 18.6417 19.444C19.0036 19.2596 19.2985 18.9649 19.4829 18.603C19.6923 18.192 19.6923 17.6544 19.6923 16.5794V13.8842M15.8461 5.23032L10.0769 10.9996V13.8842H12.9615L18.7308 8.11493M15.8461 5.23032L18.7308 2.3457L21.6154 5.23032L18.7308 8.11493M15.8461 5.23032L18.7308 8.11493" stroke="white" stroke-width="2" stroke-linecap="round" stroke-linejoin="round"/>
</g>
</svg>
