<svg width="26" height="25" viewBox="0 0 26 25" fill="none" xmlns="http://www.w3.org/2000/svg">
<path d="M13.186 2.04639C11.2014 2.05016 9.26069 2.63098 7.6003 3.71812C5.93991 4.80525 4.6315 6.35178 3.83443 8.16931C3.03736 9.98685 2.78604 11.997 3.11107 13.9548C3.43611 15.9126 4.32348 17.7337 5.66509 19.1962C6.62329 20.2348 7.78624 21.0637 9.08066 21.6307C10.3751 22.1976 11.7729 22.4904 13.186 22.4904C14.5992 22.4904 15.997 22.1976 17.2914 21.6307C18.5858 21.0637 19.7488 20.2348 20.707 19.1962C22.0486 17.7337 22.9359 15.9126 23.261 13.9548C23.586 11.997 23.3347 9.98685 22.5376 8.16931C21.7405 6.35178 20.4321 4.80525 18.7717 3.71812C17.1114 2.63098 15.1706 2.05016 13.186 2.04639ZM13.186 20.465C11.0663 20.4618 9.03049 19.6364 7.50695 18.1627C7.96951 17.0366 8.75638 16.0735 9.76758 15.3957C10.7788 14.7179 11.9687 14.356 13.186 14.356C14.4034 14.356 15.5933 14.7179 16.6045 15.3957C17.6157 16.0735 18.4025 17.0366 18.8651 18.1627C17.3416 19.6364 15.3057 20.4618 13.186 20.465ZM11.1395 10.2324C11.1395 9.82767 11.2595 9.432 11.4844 9.09545C11.7093 8.75891 12.0289 8.4966 12.4029 8.3417C12.7768 8.18681 13.1883 8.14628 13.5853 8.22524C13.9823 8.30421 14.3469 8.49912 14.6331 8.78533C14.9193 9.07154 15.1142 9.43619 15.1932 9.83318C15.2722 10.2302 15.2316 10.6416 15.0768 11.0156C14.9219 11.3896 14.6596 11.7092 14.323 11.934C13.9865 12.1589 13.5908 12.2789 13.186 12.2789C12.6433 12.2789 12.1227 12.0633 11.7389 11.6795C11.3551 11.2957 11.1395 10.7752 11.1395 10.2324ZM20.2567 16.372C19.3425 14.8082 17.9354 13.5918 16.2558 12.9134C16.7768 12.3226 17.1163 11.594 17.2335 10.8151C17.3507 10.0362 17.2406 9.23999 16.9166 8.52206C16.5925 7.80413 16.0681 7.19496 15.4064 6.76765C14.7447 6.34035 13.9737 6.11306 13.186 6.11306C12.3983 6.11306 11.6274 6.34035 10.9657 6.76765C10.3039 7.19496 9.77957 7.80413 9.45549 8.52206C9.1314 9.23999 9.02136 10.0362 9.13856 10.8151C9.25577 11.594 9.59525 12.3226 10.1163 12.9134C8.43668 13.5918 7.02957 14.8082 6.11533 16.372C5.38671 15.1309 5.00174 13.7181 4.99998 12.2789C4.99998 10.1079 5.86243 8.02572 7.39761 6.49054C8.9328 4.95535 11.0149 4.0929 13.186 4.0929C15.3571 4.0929 17.4393 4.95535 18.9744 6.49054C20.5096 8.02572 21.3721 10.1079 21.3721 12.2789C21.3703 13.7181 20.9853 15.1309 20.2567 16.372Z" fill="#848484"/>
</svg>
