<svg width="25" height="25" viewBox="0 0 25 25" fill="none" xmlns="http://www.w3.org/2000/svg">
<g id="u:heart-sign">
<path id="Vector" d="M21.0885 5.0239C20.0222 3.9686 18.6138 3.32917 17.1175 3.22098C15.6212 3.11279 14.1355 3.54297 12.9285 4.4339C11.6562 3.48753 10.0725 3.05841 8.49642 3.23293C6.92035 3.40746 5.46894 4.17267 4.43447 5.37448C3.4 6.57629 2.85932 8.12542 2.9213 9.70991C2.98328 11.2944 3.64332 12.7966 4.7685 13.9139L10.7685 19.9639C11.331 20.5257 12.0935 20.8413 12.8885 20.8413C13.6835 20.8413 14.446 20.5257 15.0085 19.9639L21.0085 13.9139C21.5994 13.3365 22.0704 12.6481 22.3944 11.8881C22.7185 11.1282 22.8891 10.3116 22.8965 9.48553C22.9039 8.6594 22.748 7.83995 22.4378 7.07428C22.1275 6.3086 21.6689 5.61179 21.0885 5.0239ZM19.6785 12.4839L13.6785 18.4839C13.5855 18.5776 13.4749 18.652 13.3531 18.7028C13.2312 18.7536 13.1005 18.7797 12.9685 18.7797C12.8365 18.7797 12.7058 18.7536 12.5839 18.7028C12.4621 18.652 12.3515 18.5776 12.2585 18.4839L6.2585 12.4839C5.47426 11.6822 5.03511 10.6054 5.03511 9.4839C5.03511 8.36243 5.47426 7.28555 6.2585 6.4839C7.05765 5.69488 8.13547 5.25246 9.2585 5.25246C10.3815 5.25246 11.4593 5.69488 12.2585 6.4839C12.3515 6.57762 12.4621 6.65202 12.5839 6.70279C12.7058 6.75356 12.8365 6.77969 12.9685 6.77969C13.1005 6.77969 13.2312 6.75356 13.3531 6.70279C13.4749 6.65202 13.5855 6.57762 13.6785 6.4839C14.4993 5.83078 15.5317 5.50262 16.5789 5.56199C17.6262 5.62136 18.6149 6.06411 19.3566 6.8058C20.0983 7.54749 20.541 8.53623 20.6004 9.58346C20.6598 10.6307 20.3316 11.6631 19.6785 12.4839Z" fill="black"/>
</g>
</svg>
