<svg width="23" height="23" viewBox="0 0 23 23" fill="none" xmlns="http://www.w3.org/2000/svg">
<g id="Glyph / plusInCircleFilled" clip-path="url(#clip0_2003_3952)">
<path id="Vector" d="M12.2667 10.7333V5.36667C12.2667 4.94325 11.9234 4.6 11.5 4.6C11.0766 4.6 10.7333 4.94325 10.7333 5.36667V10.7333H5.36667C4.94325 10.7333 4.6 11.0766 4.6 11.5C4.6 11.9234 4.94325 12.2667 5.36667 12.2667H10.7333V17.6333C10.7333 18.0568 11.0766 18.4 11.5 18.4C11.9234 18.4 12.2667 18.0568 12.2667 17.6333V12.2667H17.6333C18.0568 12.2667 18.4 11.9234 18.4 11.5C18.4 11.0766 18.0568 10.7333 17.6333 10.7333H12.2667ZM11.5 23C5.14873 23 0 17.8513 0 11.5C0 5.14873 5.14873 0 11.5 0C17.8513 0 23 5.14873 23 11.5C23 17.8513 17.8513 23 11.5 23Z" fill="#343741"/>
</g>
<defs>
<clipPath id="clip0_2003_3952">
<rect width="23" height="23" fill="white"/>
</clipPath>
</defs>
</svg>
