<svg width="25" height="25" viewBox="0 0 25 25" fill="none" xmlns="http://www.w3.org/2000/svg">
<path d="M8.48844 11.2557C8.28606 11.2557 8.08823 11.3157 7.91995 11.4281C7.75168 11.5406 7.62053 11.7004 7.54308 11.8874C7.46563 12.0743 7.44537 12.2801 7.48485 12.4786C7.52433 12.6771 7.62179 12.8594 7.76489 13.0025C7.908 13.1456 8.09032 13.2431 8.28882 13.2825C8.48731 13.322 8.69305 13.3018 8.88003 13.2243C9.067 13.1469 9.22681 13.0157 9.33925 12.8474C9.45169 12.6792 9.5117 12.4813 9.5117 12.2789C9.5117 12.0076 9.40389 11.7473 9.212 11.5554C9.0201 11.3635 8.75983 11.2557 8.48844 11.2557ZM12.5815 11.2557C12.3791 11.2557 12.1813 11.3157 12.013 11.4281C11.8447 11.5406 11.7136 11.7004 11.6361 11.8874C11.5587 12.0743 11.5384 12.2801 11.5779 12.4786C11.6174 12.6771 11.7148 12.8594 11.8579 13.0025C12.001 13.1456 12.1833 13.2431 12.3818 13.2825C12.5803 13.322 12.7861 13.3018 12.9731 13.2243C13.16 13.1469 13.3198 13.0157 13.4323 12.8474C13.5447 12.6792 13.6047 12.4813 13.6047 12.2789C13.6047 12.0076 13.4969 11.7473 13.305 11.5554C13.1131 11.3635 12.8529 11.2557 12.5815 11.2557ZM16.6745 11.2557C16.4721 11.2557 16.2743 11.3157 16.106 11.4281C15.9377 11.5406 15.8066 11.7004 15.7291 11.8874C15.6517 12.0743 15.6314 12.2801 15.6709 12.4786C15.7104 12.6771 15.8078 12.8594 15.9509 13.0025C16.094 13.1456 16.2764 13.2431 16.4749 13.2825C16.6734 13.322 16.8791 13.3018 17.0661 13.2243C17.253 13.1469 17.4129 13.0157 17.5253 12.8474C17.6377 12.6792 17.6977 12.4813 17.6977 12.2789C17.6977 12.0076 17.5899 11.7473 17.398 11.5554C17.2061 11.3635 16.9459 11.2557 16.6745 11.2557ZM12.5815 2.04639C11.2377 2.04639 9.90711 2.31106 8.66564 2.82529C7.42417 3.33953 6.29614 4.09325 5.34596 5.04343C3.42698 6.96241 2.34891 9.5651 2.34891 12.2789C2.33996 14.6418 3.15809 16.9333 4.66147 18.7562L2.61496 20.8027C2.47297 20.9466 2.37679 21.1293 2.33855 21.3278C2.3003 21.5263 2.32171 21.7317 2.40007 21.918C2.48506 22.1021 2.62284 22.2568 2.79592 22.3625C2.96899 22.4682 3.16956 22.52 3.37217 22.5115H12.5815C15.2953 22.5115 17.898 21.4334 19.817 19.5145C21.736 17.5955 22.814 14.9928 22.814 12.2789C22.814 9.5651 21.736 6.96241 19.817 5.04343C17.898 3.12446 15.2953 2.04639 12.5815 2.04639ZM12.5815 20.465H5.83821L6.78984 19.5134C6.88653 19.4186 6.96344 19.3056 7.01614 19.1809C7.06883 19.0562 7.09625 18.9222 7.09682 18.7869C7.09297 18.5169 6.98264 18.2595 6.78984 18.0706C5.44997 16.7322 4.6156 14.9707 4.42887 13.0861C4.24215 11.2015 4.71462 9.31049 5.76579 7.7352C6.81697 6.15991 8.38181 4.99782 10.1937 4.44692C12.0056 3.89601 13.9525 3.99037 15.7026 4.71393C17.4528 5.43748 18.8979 6.74546 19.7918 8.41502C20.6857 10.0846 20.9731 12.0124 20.6049 13.8701C20.2368 15.7278 19.236 17.4004 17.773 18.6029C16.31 19.8054 14.4753 20.4635 12.5815 20.465Z" fill="#848484"/>
</svg>
