<svg width="25" height="25" viewBox="0 0 25 25" fill="none" xmlns="http://www.w3.org/2000/svg">
<g id="u:comment">
<path id="Vector" d="M12.9286 2.02393C11.6154 2.02393 10.315 2.28258 9.10174 2.78513C7.88849 3.28768 6.78609 4.02427 5.85751 4.95286C3.98215 6.82822 2.92858 9.37176 2.92858 12.0239C2.91983 14.3331 3.71937 16.5725 5.18858 18.3539L3.18858 20.3539C3.04982 20.4945 2.95582 20.6731 2.91845 20.8671C2.88107 21.0611 2.902 21.2618 2.97858 21.4439C3.06163 21.6239 3.19628 21.775 3.36542 21.8783C3.53457 21.9816 3.73058 22.0323 3.92858 22.0239H12.9286C15.5807 22.0239 18.1243 20.9704 19.9996 19.095C21.875 17.2196 22.9286 14.6761 22.9286 12.0239C22.9286 9.37176 21.875 6.82822 19.9996 4.95286C18.1243 3.07749 15.5807 2.02393 12.9286 2.02393ZM12.9286 20.0239H6.33858L7.26858 19.0939C7.45483 18.9066 7.55937 18.6531 7.55937 18.3889C7.55937 18.1247 7.45483 17.8713 7.26858 17.6839C5.95916 16.376 5.14375 14.6545 4.96127 12.8127C4.77878 10.971 5.24052 9.12293 6.2678 7.58345C7.29509 6.04396 8.82437 4.90828 10.5951 4.3699C12.3658 3.83151 14.2684 3.92373 15.9788 4.63084C17.6891 5.33795 19.1014 6.6162 19.975 8.24782C20.8486 9.87943 21.1294 11.7635 20.7697 13.5789C20.41 15.3944 19.4319 17.029 18.0021 18.2042C16.5723 19.3794 14.7793 20.0225 12.9286 20.0239Z" fill="black"/>
</g>
</svg>
