<svg width="30" height="30" viewBox="0 0 30 30" fill="none" xmlns="http://www.w3.org/2000/svg">
<g id="u:rocket">
<path id="Vector" d="M28.2513 2.57768C28.1949 2.36358 28.0827 2.16829 27.9262 2.01173C27.7696 1.85517 27.5743 1.74297 27.3602 1.68657C24.796 1.02055 22.0958 1.09229 19.5706 1.89351C17.0453 2.69473 14.7977 4.19286 13.0865 6.21539L11.6929 7.87018L8.43688 7.08458C7.64531 6.80862 6.78061 6.8284 6.00248 7.14027C5.22435 7.45214 4.58535 8.03503 4.20348 8.7813L1.45325 13.6562C1.35688 13.8269 1.30204 14.018 1.29315 14.2138C1.28427 14.4097 1.32159 14.6049 1.4021 14.7837C1.4826 14.9625 1.60404 15.1198 1.7566 15.243C1.90915 15.3661 2.08854 15.4517 2.28027 15.4927L6.12121 16.316C5.79584 17.3065 5.56352 18.3251 5.42725 19.3587C5.40254 19.5485 5.42178 19.7416 5.48347 19.9228C5.54516 20.1041 5.64767 20.2688 5.78307 20.4042L9.6582 24.2793C9.77422 24.3954 9.91199 24.4875 10.0636 24.5504C10.2153 24.6132 10.3778 24.6456 10.5419 24.6456C10.578 24.6456 10.614 24.6437 10.6506 24.6407C11.7073 24.5457 12.7511 24.3404 13.7651 24.0282L14.5697 27.7821C14.6108 27.9738 14.6964 28.1531 14.8196 28.3056C14.9428 28.4581 15.1001 28.5795 15.2788 28.66C15.4576 28.7405 15.6527 28.7779 15.8486 28.769C16.0444 28.7602 16.2354 28.7054 16.4062 28.6092L21.2878 25.8559C21.9749 25.4384 22.5115 24.8135 22.8205 24.0713C23.1294 23.329 23.1945 22.5079 23.0065 21.7262L22.1707 18.2775L23.717 16.8556C25.7471 15.1492 27.251 12.9015 28.0537 10.3739C28.8564 7.84627 28.9249 5.14271 28.2513 2.57768ZM4.46533 13.4041L6.41052 9.9544C6.53134 9.72021 6.73718 9.54111 6.98584 9.45384C7.23449 9.36656 7.50711 9.37773 7.7478 9.48504L9.89456 10.0053L9.08206 10.97C8.31176 11.8933 7.64552 12.8985 7.09541 13.9677L4.46533 13.4041ZM20.0531 23.6818L16.6583 25.5964L16.1214 23.0906C17.2097 22.5479 18.2236 21.8674 19.1382 21.0658L20.0676 20.2112L20.5719 22.292C20.6373 22.5489 20.6227 22.8197 20.53 23.0681C20.4372 23.3165 20.2709 23.5306 20.0531 23.6818ZM22.0709 14.9752L17.4652 19.208C15.6422 20.7846 13.3935 21.7867 11.0022 22.0882L7.99682 19.0828C8.40047 16.6853 9.43646 14.4389 10.9979 12.5753L13.0958 10.0845C13.1308 10.0479 13.1634 10.0092 13.1935 9.96853L14.9872 7.83893C16.3134 6.27255 18.0315 5.08619 19.9662 4.40098C21.9009 3.71578 23.9827 3.55628 25.9991 3.93878C26.3909 5.96155 26.2331 8.05237 25.5422 9.99343C24.8513 11.9345 23.6526 13.6548 22.0709 14.9752ZM20.9172 7.27048C20.5463 7.27048 20.1838 7.38045 19.8755 7.58647C19.5671 7.7925 19.3268 8.08534 19.1849 8.42795C19.043 8.77056 19.0059 9.14756 19.0782 9.51127C19.1505 9.87499 19.3291 10.2091 19.5913 10.4713C19.8536 10.7335 20.1877 10.9121 20.5514 10.9845C20.9151 11.0568 21.2921 11.0197 21.6347 10.8778C21.9773 10.7358 22.2701 10.4955 22.4762 10.1872C22.6822 9.87883 22.7922 9.51632 22.7922 9.14548C22.7922 8.89924 22.7437 8.65541 22.6495 8.42791C22.5553 8.20042 22.4171 7.99371 22.243 7.81959C22.0689 7.64548 21.8622 7.50736 21.6347 7.41314C21.4072 7.31892 21.1634 7.27043 20.9171 7.27045L20.9172 7.27048Z" fill="#FF7373"/>
</g>
</svg>
