<svg width="17" height="16" viewBox="0 0 17 16" fill="none" xmlns="http://www.w3.org/2000/svg">
<g id="Vector">
<mask id="path-1-inside-1_2013_3834" fill="white">
<path d="M15.42 7.8C15.42 11.677 12.277 14.82 8.40001 14.82C4.52297 14.82 1.38001 11.677 1.38001 7.8C1.38001 3.92296 4.52297 0.78 8.40001 0.78C12.277 0.78 15.42 3.92296 15.42 7.8Z"/>
<path d="M8.40001 15.6C12.7078 15.6 16.2 12.1078 16.2 7.8C16.2 3.49218 12.7078 0 8.40001 0C4.09219 0 0.600006 3.49218 0.600006 7.8C0.600006 12.1078 4.09219 15.6 8.40001 15.6Z"/>
</mask>
<path d="M15.42 7.8C15.42 11.677 12.277 14.82 8.40001 14.82C4.52297 14.82 1.38001 11.677 1.38001 7.8C1.38001 3.92296 4.52297 0.78 8.40001 0.78C12.277 0.78 15.42 3.92296 15.42 7.8Z" fill="#E8E8E8"/>
<path d="M8.40001 15.6C12.7078 15.6 16.2 12.1078 16.2 7.8C16.2 3.49218 12.7078 0 8.40001 0C4.09219 0 0.600006 3.49218 0.600006 7.8C0.600006 12.1078 4.09219 15.6 8.40001 15.6Z" fill="#E8E8E8"/>
<path d="M11.1643 5.88426C11.3986 5.64995 11.3986 5.27005 11.1643 5.03574C10.93 4.80142 10.5501 4.80142 10.3157 5.03574L11.1643 5.88426ZM5.63574 9.71574C5.40143 9.95005 5.40143 10.3299 5.63574 10.5643C5.87006 10.7986 6.24996 10.7986 6.48427 10.5643L5.63574 9.71574ZM6.48427 5.03574C6.24996 4.80142 5.87006 4.80142 5.63574 5.03574C5.40143 5.27005 5.40143 5.64995 5.63574 5.88426L6.48427 5.03574ZM10.3157 10.5643C10.5501 10.7986 10.93 10.7986 11.1643 10.5643C11.3986 10.3299 11.3986 9.95005 11.1643 9.71574L10.3157 10.5643ZM10.3157 5.03574L5.63574 9.71574L6.48427 10.5643L11.1643 5.88426L10.3157 5.03574ZM5.63574 5.88426L10.3157 10.5643L11.1643 9.71574L6.48427 5.03574L5.63574 5.88426ZM14.22 7.8C14.22 11.0143 11.6143 13.62 8.40001 13.62V16.02C12.9398 16.02 16.62 12.3398 16.62 7.8H14.22ZM8.40001 13.62C5.18571 13.62 2.58001 11.0143 2.58001 7.8H0.180006C0.180006 12.3398 3.86022 16.02 8.40001 16.02V13.62ZM2.58001 7.8C2.58001 4.5857 5.18571 1.98 8.40001 1.98V-0.42C3.86022 -0.42 0.180006 3.26022 0.180006 7.8H2.58001ZM8.40001 1.98C11.6143 1.98 14.22 4.5857 14.22 7.8H16.62C16.62 3.26022 12.9398 -0.42 8.40001 -0.42V1.98ZM15 7.8C15 11.4451 12.0451 14.4 8.40001 14.4V16.8C13.3706 16.8 17.4 12.7706 17.4 7.8H15ZM8.40001 14.4C4.75493 14.4 1.80001 11.4451 1.80001 7.8H-0.599994C-0.599994 12.7706 3.42944 16.8 8.40001 16.8V14.4ZM1.80001 7.8C1.80001 4.15492 4.75493 1.2 8.40001 1.2V-1.2C3.42944 -1.2 -0.599994 2.82944 -0.599994 7.8H1.80001ZM8.40001 1.2C12.0451 1.2 15 4.15492 15 7.8H17.4C17.4 2.82944 13.3706 -1.2 8.40001 -1.2V1.2Z" fill="black" mask="url(#path-1-inside-1_2013_3834)"/>
</g>
</svg>
