<svg width="320" height="387" viewBox="0 0 320 387" fill="none" xmlns="http://www.w3.org/2000/svg">
<mask id="mask0_2417_5862" style="mask-type:alpha" maskUnits="userSpaceOnUse" x="0" y="-4" width="320" height="391">
<rect y="-4" width="320" height="391" fill="#D9D9D9"/>
</mask>
<g mask="url(#mask0_2417_5862)">
<path opacity="0.7" fill-rule="evenodd" clip-rule="evenodd" d="M163.135 348.101C177.555 371.762 160.899 403.084 145.57 426.432C133.152 445.345 111.44 454.52 89.4873 460.272C71.5831 464.963 53.7591 461.346 36.4719 455.016C19.0205 448.626 3.68032 439.365 -7.60193 424.72C-23.2511 404.406 -45.8753 382.275 -38.5955 357.574C-31.2137 332.527 -1.00466 321.664 24.5605 315.59C45.6457 310.58 64.6023 323.13 85.6198 328.061C112.637 334.399 148.796 324.571 163.135 348.101Z" fill="#FCC719"/>
<path opacity="0.7" fill-rule="evenodd" clip-rule="evenodd" d="M59.0464 173.146C67.8862 180.44 57.9465 194.748 63.5306 204.499C69.5042 214.931 89.0058 217.206 90.7607 228.527C92.4224 239.247 79.0895 244.855 70.665 250.525C64.0149 255 53.363 252.56 47.3273 257.756C40.5091 263.625 41.822 275.671 34.8413 281.363C26.7371 287.971 15.5108 297.839 4.93661 292.32C-6.85654 286.164 -5.58017 269.076 -11.2152 257.323C-14.4941 250.483 -17.839 243.964 -21.4642 237.254C-25.1518 230.429 -31.8592 224.565 -32.8714 217.239C-33.8924 209.85 -28.5444 204.074 -27.0096 197.119C-25.1072 188.499 -28.2803 177.703 -22.7039 171.168C-17.2112 164.73 -7.21779 162.464 2.01464 163.104C10.9949 163.726 18.3449 173.053 27.3398 174.636C38.2264 176.553 50.1753 165.826 59.0464 173.146Z" fill="#58AEE2"/>
<path fill-rule="evenodd" clip-rule="evenodd" d="M285.712 190.155C293.458 194.817 301.39 199.524 306.595 206.928C311.831 214.376 314.679 223.351 315.448 232.452C316.196 241.32 312.806 249.747 310.946 258.464C308.93 267.914 310.844 279.433 303.974 286.231C297.048 293.084 285.288 290.142 276.009 293.032C267.462 295.695 260.124 301.305 251.281 302.644C241.339 304.149 230.631 305.553 221.556 301.277C212.391 296.958 204.938 288.584 201.31 279.097C197.802 269.919 203.585 259.624 201.923 249.928C200.21 239.934 190.483 231.904 191.489 221.799C192.492 211.723 199.463 202.705 207.268 196.249C214.824 189.999 225.148 189.177 234.481 186.238C243.25 183.477 251.684 178.683 260.829 179.383C269.966 180.081 277.871 185.436 285.712 190.155Z" fill="#FF63AE"/>
<path fill-rule="evenodd" clip-rule="evenodd" d="M332.491 409.804C336.99 402.96 333.58 393.611 337.778 386.593C343.263 377.424 358.738 374.179 359.989 363.834C361.133 354.383 350.667 347.874 343.074 342.811C336.427 338.38 328 336.962 319.738 336.997C313.115 337.025 307.25 342.481 300.611 342.991C295.251 343.403 290.587 340.533 285.383 339.637C276.334 338.08 266.619 330.703 258.415 335.729C251.212 340.141 256.82 352.288 252.708 359.652C247.612 368.778 230.952 372.975 232.046 382.95C233.161 393.117 248.297 393.882 257.001 398.796C262.594 401.954 268.575 403.927 274.322 406.821C279.654 409.505 284.42 412.727 289.806 415.311C297.303 418.907 303.888 426.218 312.453 425.113C320.663 424.054 327.823 416.904 332.491 409.804Z" fill="#58E2A8"/>
<path fill-rule="evenodd" clip-rule="evenodd" d="M299.043 119.108C303.733 118.489 307.966 113.8 312.451 115.291C316.78 116.73 318.242 122.1 320.256 126.159C322.164 130.007 323.229 134.045 323.855 138.286C324.565 143.106 325.862 148.076 324.161 152.646C322.355 157.496 318.146 160.889 314.185 164.256C309.539 168.206 305.167 174.003 299.043 174C292.919 173.997 287.829 168.902 283.909 164.243C280.569 160.273 281.331 154.379 278.755 149.885C276.207 145.44 268.446 143.365 269.031 138.286C269.646 132.959 277.577 132.049 281.266 128.123C283.924 125.293 284.076 120.336 287.55 118.574C291.023 116.813 295.176 119.618 299.043 119.108Z" fill="#FCC719"/>
<path fill-rule="evenodd" clip-rule="evenodd" d="M90.7468 136.743C90.3753 131.704 88.6172 125.231 92.2845 121.832C96.6634 117.773 104.315 121.816 109.656 119.216C113.127 117.527 113.452 112.23 116.61 109.992C120.022 107.573 124.148 106.009 128.304 106C132.556 105.991 136.408 108.227 140.312 109.942C144.551 111.805 149.17 113.177 152.367 116.572C155.669 120.079 157.656 124.726 158.701 129.469C159.751 134.233 161.14 139.947 158.402 143.952C155.36 148.402 148.181 147.303 144.117 150.804C141.233 153.289 141.194 157.885 138.788 160.853C135.869 164.453 133.135 169.681 128.562 169.989C123.919 170.301 121.291 164.116 116.985 162.318C113.06 160.679 108.395 161.935 104.609 159.985C100.494 157.865 96.8073 154.705 94.4121 150.689C91.9325 146.532 91.1045 141.595 90.7468 136.743Z" fill="#58E2A8"/>
<path fill-rule="evenodd" clip-rule="evenodd" d="M213.286 24.3931C217.294 22.77 222.061 26.4965 225.019 29.6668C228.041 32.9059 227.419 38.2191 229.723 42.01C231.368 44.7148 235.245 45.6206 236.488 48.5348C237.735 51.459 235.719 54.9284 236.542 58.0011C237.552 61.771 243.136 64.6788 241.793 68.3415C240.383 72.1842 233.077 70.1038 230.847 73.5293C228.392 77.3003 231.923 82.9728 229.713 86.8942C227.684 90.4929 223.348 92.2041 219.5 93.6556C215.432 95.1906 210.891 96.7872 206.717 95.5693C202.498 94.338 199.977 90.0587 196.78 87.0247C193.991 84.3778 191.503 81.5601 188.935 78.6948C186.198 75.6409 180.801 73.5324 181.006 69.4233C181.249 64.5339 188.586 62.6896 189.964 57.9949C191.008 54.439 185.706 50.4748 187.514 47.2452C189.376 43.9208 194.792 45.2335 198.126 43.4201C200.664 42.04 202.911 40.1549 204.717 37.8893C208.064 33.6888 208.325 26.4024 213.286 24.3931Z" fill="#58AEE2"/>
<path fill-rule="evenodd" clip-rule="evenodd" d="M33.7953 4.00048C40.7041 4.04516 46.3273 7.95889 52.2854 11.454C61.7497 17.0059 78.2077 18.9661 77.998 29.9306C77.7872 40.955 60.5637 41.295 51.592 47.7143C45.2378 52.2609 41.3063 59.4003 33.7953 61.5581C23.0841 64.6353 9.9093 69.5288 1.63655 62.0659C-6.66875 54.5737 -4.11915 40.7414 -1.26452 29.9306C0.932334 21.6109 8.14308 16.3323 15.0643 11.2133C20.6555 7.07814 26.8395 3.95549 33.7953 4.00048Z" fill="#FF63AE"/>
<path fill-rule="evenodd" clip-rule="evenodd" d="M297.708 3.33969C301.189 3.96206 305.01 2.68016 307.987 4.56957C311.033 6.50342 311.866 10.3075 313.617 13.4387C315.893 17.5093 321.191 21.1917 319.758 25.6211C318.326 30.0452 311.827 29.9528 307.609 32.0056C304.288 33.622 301.236 35.2442 297.708 36.3528C292.4 38.0206 286.567 43.0293 281.853 40.0982C277.234 37.2259 280.195 29.824 278.818 24.6069C277.563 19.8554 273.082 15.7817 274.168 10.9897C275.273 6.11268 279.509 1.90002 284.316 0.338054C288.773 -1.11049 293.09 2.5143 297.708 3.33969Z" fill="#58E2A8"/>
</g>
<rect width="320" height="387" fill="url(#paint0_linear_2417_5862)" fill-opacity="0.8"/>
<defs>
<linearGradient id="paint0_linear_2417_5862" x1="160" y1="0" x2="160" y2="340.198" gradientUnits="userSpaceOnUse">
<stop stop-color="white"/>
<stop offset="0.95" stop-color="white" stop-opacity="0"/>
</linearGradient>
</defs>
</svg>
