<svg width="32" height="27" viewBox="0 0 32 27" fill="none" xmlns="http://www.w3.org/2000/svg">
<path id="Vector" d="M29.5715 11.1764H28.0308V9.63579C28.0308 9.22719 27.8685 8.83533 27.5796 8.54641C27.2907 8.25749 26.8988 8.09517 26.4902 8.09517C26.0816 8.09517 25.6898 8.25749 25.4008 8.54641C25.1119 8.83533 24.9496 9.22719 24.9496 9.63579V11.1764H23.409C23.0004 11.1764 22.6085 11.3387 22.3196 11.6276C22.0307 11.9166 21.8684 12.3084 21.8684 12.717C21.8684 13.1256 22.0307 13.5175 22.3196 13.8064C22.6085 14.0953 23.0004 14.2576 23.409 14.2576H24.9496V15.7983C24.9496 16.2068 25.1119 16.5987 25.4008 16.8876C25.6898 17.1766 26.0816 17.3389 26.4902 17.3389C26.8988 17.3389 27.2907 17.1766 27.5796 16.8876C27.8685 16.5987 28.0308 16.2068 28.0308 15.7983V14.2576H29.5715C29.98 14.2576 30.3719 14.0953 30.6608 13.8064C30.9498 13.5175 31.1121 13.1256 31.1121 12.717C31.1121 12.3084 30.9498 11.9166 30.6608 11.6276C30.3719 11.3387 29.98 11.1764 29.5715 11.1764ZM17.7087 13.8263C18.5307 13.1147 19.1901 12.2346 19.642 11.2458C20.0939 10.2569 20.3278 9.1824 20.3278 8.09517C20.3278 6.05219 19.5162 4.09288 18.0716 2.64827C16.627 1.20366 14.6677 0.39209 12.6247 0.39209C10.5817 0.39209 8.62238 1.20366 7.17777 2.64827C5.73316 4.09288 4.92159 6.05219 4.92159 8.09517C4.92158 9.1824 5.15546 10.2569 5.60736 11.2458C6.05926 12.2346 6.7186 13.1147 7.54064 13.8263C5.38399 14.8028 3.55424 16.3799 2.27016 18.3688C0.986081 20.3578 0.302011 22.6745 0.299744 25.0419C0.299744 25.4505 0.462058 25.8424 0.75098 26.1313C1.0399 26.4203 1.43176 26.5826 1.84036 26.5826C2.24896 26.5826 2.64082 26.4203 2.92974 26.1313C3.21866 25.8424 3.38098 25.4505 3.38098 25.0419C3.38098 22.5904 4.35486 20.2392 6.08839 18.5057C7.82192 16.7721 10.1731 15.7983 12.6247 15.7983C15.0763 15.7983 17.4274 16.7721 19.161 18.5057C20.8945 20.2392 21.8684 22.5904 21.8684 25.0419C21.8684 25.4505 22.0307 25.8424 22.3196 26.1313C22.6085 26.4203 23.0004 26.5826 23.409 26.5826C23.8176 26.5826 24.2094 26.4203 24.4984 26.1313C24.7873 25.8424 24.9496 25.4505 24.9496 25.0419C24.9473 22.6745 24.2633 20.3578 22.9792 18.3688C21.6951 16.3799 19.8654 14.8028 17.7087 13.8263ZM12.6247 12.717C11.7106 12.717 10.817 12.446 10.0569 11.9381C9.29685 11.4302 8.70446 10.7084 8.35464 9.86388C8.00483 9.01934 7.9133 8.09004 8.09163 7.19349C8.26997 6.29694 8.71016 5.47341 9.35653 4.82703C10.0029 4.18065 10.8264 3.74046 11.723 3.56213C12.6195 3.3838 13.5488 3.47532 14.3934 3.82514C15.2379 4.17496 15.9597 4.76735 16.4676 5.52741C16.9755 6.28747 17.2465 7.18106 17.2465 8.09517C17.2465 9.32096 16.7596 10.4965 15.8928 11.3633C15.026 12.2301 13.8505 12.717 12.6247 12.717Z" fill="#58AEE2"/>
</svg>
