<svg width="34" height="33" viewBox="0 0 34 33" fill="none" xmlns="http://www.w3.org/2000/svg">
<g id="u:bright">
<path id="Vector" d="M17.3896 10.9764C16.3042 10.9764 15.2431 11.2983 14.3406 11.9013C13.438 12.5044 12.7346 13.3615 12.3192 14.3643C11.9038 15.3672 11.7951 16.4707 12.0069 17.5353C12.2186 18.5999 12.7413 19.5778 13.5089 20.3454C14.2764 21.1129 15.2543 21.6356 16.3189 21.8474C17.3836 22.0591 18.4871 21.9504 19.4899 21.5351C20.4927 21.1197 21.3499 20.4162 21.9529 19.5137C22.556 18.6112 22.8779 17.5501 22.8779 16.4646C22.8779 15.009 22.2996 13.6131 21.2704 12.5838C20.2412 11.5546 18.8452 10.9764 17.3896 10.9764ZM17.3896 19.2087C16.8469 19.2087 16.3164 19.0478 15.8651 18.7462C15.4138 18.4447 15.0621 18.0161 14.8544 17.5147C14.6467 17.0133 14.5924 16.4616 14.6983 15.9292C14.8041 15.3969 15.0655 14.908 15.4493 14.5242C15.833 14.1404 16.322 13.8791 16.8543 13.7732C17.3866 13.6673 17.9383 13.7217 18.4398 13.9294C18.9412 14.1371 19.3698 14.4888 19.6713 14.9401C19.9728 15.3913 20.1338 15.9219 20.1338 16.4646C20.1338 17.1924 19.8446 17.8904 19.33 18.405C18.8154 18.9196 18.1174 19.2087 17.3896 19.2087ZM30.7123 15.4904L27.488 12.3484V7.73832C27.488 7.37443 27.3434 7.02544 27.0861 6.76813C26.8288 6.51082 26.4798 6.36627 26.1159 6.36627H21.5744L18.3638 3.14194C18.2363 3.01334 18.0845 2.91126 17.9173 2.8416C17.7501 2.77195 17.5708 2.73608 17.3896 2.73608C17.2085 2.73608 17.0292 2.77195 16.862 2.8416C16.6948 2.91126 16.543 3.01334 16.4155 3.14194L13.2735 6.36627H8.66337C8.29948 6.36627 7.95049 6.51082 7.69318 6.76813C7.43587 7.02544 7.29132 7.37443 7.29132 7.73832V12.3484L4.06698 15.4904C3.93838 15.618 3.83631 15.7697 3.76665 15.9369C3.697 16.1041 3.66113 16.2835 3.66113 16.4646C3.66113 16.6457 3.697 16.8251 3.76665 16.9923C3.83631 17.1595 3.93838 17.3112 4.06698 17.4388L7.29132 20.6494V25.1909C7.29132 25.5548 7.43587 25.9038 7.69318 26.1611C7.95049 26.4184 8.29948 26.5629 8.66337 26.5629H13.2735L16.4841 29.7873C16.6116 29.9159 16.7634 30.0179 16.9306 30.0876C17.0978 30.1572 17.2771 30.1931 17.4582 30.1931C17.6394 30.1931 17.8187 30.1572 17.9859 30.0876C18.1531 30.0179 18.3049 29.9159 18.4324 29.7873L21.643 26.5629H26.1845C26.5484 26.5629 26.8974 26.4184 27.1547 26.1611C27.412 25.9038 27.5566 25.5548 27.5566 25.1909V20.6494L30.7809 17.4388C30.9051 17.3067 31.0019 17.1514 31.0658 16.9817C31.1296 16.8121 31.1592 16.6315 31.1528 16.4503C31.1464 16.2691 31.1042 16.091 31.0286 15.9263C30.953 15.7615 30.8455 15.6134 30.7123 15.4904ZM25.1555 19.1127C25.0258 19.2397 24.9227 19.3913 24.852 19.5585C24.7814 19.7257 24.7446 19.9053 24.7439 20.0868V23.8188H21.0119C20.8303 23.8196 20.6508 23.8563 20.4835 23.927C20.3163 23.9977 20.1648 24.1008 20.0377 24.2304L17.3896 26.8785L14.7416 24.2304C14.6145 24.1008 14.463 23.9977 14.2957 23.927C14.1285 23.8563 13.949 23.8196 13.7674 23.8188H10.0354V20.0868C10.0347 19.9053 9.9979 19.7257 9.92725 19.5585C9.85659 19.3913 9.75345 19.2397 9.62381 19.1127L6.97574 16.4646L9.62381 13.8165C9.75345 13.6895 9.85659 13.5379 9.92725 13.3707C9.9979 13.2035 10.0347 13.0239 10.0354 12.8424V9.11038H13.7674C13.949 9.10962 14.1285 9.07285 14.2957 9.0022C14.463 8.93154 14.6145 8.8284 14.7416 8.69876L17.3896 6.05069L20.0377 8.69876C20.1648 8.8284 20.3163 8.93154 20.4835 9.0022C20.6508 9.07285 20.8303 9.10962 21.0119 9.11038H24.7439V12.8424C24.7446 13.0239 24.7814 13.2035 24.852 13.3707C24.9227 13.5379 25.0258 13.6895 25.1555 13.8165L27.8035 16.4646L25.1555 19.1127Z" fill="black"/>
</g>
</svg>
