<svg width="25" height="25" viewBox="0 0 25 25" fill="none" xmlns="http://www.w3.org/2000/svg">
<path d="M20.7451 5.11624C19.654 4.0364 18.2129 3.3821 16.6818 3.27139C15.1507 3.16069 13.6304 3.60087 12.3953 4.51252C11.0934 3.54414 9.47292 3.10504 7.86019 3.28362C6.24747 3.46221 4.76231 4.24522 3.70378 5.47498C2.64526 6.70473 2.092 8.28989 2.15542 9.91123C2.21884 11.5326 2.89423 13.0697 4.04558 14.213L10.1851 20.4037C10.7607 20.9785 11.5409 21.3014 12.3544 21.3014C13.1679 21.3014 13.9481 20.9785 14.5237 20.4037L20.6632 14.213C21.2679 13.6222 21.7499 12.9177 22.0814 12.1401C22.413 11.3625 22.5876 10.527 22.5952 9.68163C22.6028 8.83629 22.4433 7.99778 22.1258 7.2143C21.8083 6.43082 21.3391 5.7178 20.7451 5.11624ZM19.3023 12.7497L13.1628 18.8893C13.0677 18.9852 12.9545 19.0613 12.8298 19.1132C12.7051 19.1652 12.5714 19.1919 12.4363 19.1919C12.3012 19.1919 12.1674 19.1652 12.0428 19.1132C11.9181 19.0613 11.8049 18.9852 11.7098 18.8893L5.57023 12.7497C4.76775 11.9294 4.31839 10.8275 4.31839 9.67996C4.31839 8.53241 4.76775 7.43049 5.57023 6.61019C6.38797 5.80283 7.49085 5.35012 8.63999 5.35012C9.78914 5.35012 10.892 5.80283 11.7098 6.61019C11.8049 6.7061 11.9181 6.78222 12.0428 6.83417C12.1674 6.88612 12.3012 6.91287 12.4363 6.91287C12.5714 6.91287 12.7051 6.88612 12.8298 6.83417C12.9545 6.78222 13.0677 6.7061 13.1628 6.61019C14.0026 5.94189 15.0591 5.60609 16.1307 5.66684C17.2023 5.72759 18.214 6.18064 18.9729 6.93958C19.7319 7.69852 20.1849 8.71025 20.2457 9.78184C20.3064 10.8534 19.9706 11.9099 19.3023 12.7497Z" fill="#848484"/>
</svg>
