<svg width="34" height="34" viewBox="0 0 34 34" fill="none" xmlns="http://www.w3.org/2000/svg">
<g id="Group 3442">
<path id="Vector" d="M11.6468 33.2031C10.92 32.7405 10.8119 32.2641 11.2511 31.4977C11.8528 30.4456 12.4519 29.3927 13.0494 28.338C13.2673 27.9539 13.2647 27.9505 12.8953 27.7373C12.3958 27.449 11.9013 27.1539 11.5702 26.6524C10.886 25.6159 10.8153 24.5362 11.4247 23.4565C13.2426 20.2338 15.0809 17.0232 16.9107 13.8075C17.7277 12.3722 18.5405 10.9343 19.3643 9.50338C19.486 9.29193 19.4528 9.17541 19.2477 9.07098C19.0681 8.97863 18.8945 8.87334 18.7234 8.76546C18.24 8.45993 18.0868 7.87219 18.3617 7.3906C18.6247 6.93059 19.2103 6.75711 19.6928 7.02725C20.4086 7.42685 21.1201 7.83508 21.8154 8.27006C22.0954 8.44526 22.2145 8.40211 22.366 8.11471C22.7311 7.42253 23.1226 6.7433 23.5269 6.07357C23.6843 5.81206 23.6511 5.68864 23.3916 5.52121C22.4571 4.91879 21.9822 4.02725 22.029 2.91217C22.0758 1.79796 22.6154 0.940072 23.6009 0.42655C24.5133 -0.0489972 25.452 -0.034325 26.3465 0.479197C28.1652 1.52437 29.9618 2.60924 31.7839 3.64836C33.4971 4.62535 33.8052 6.81666 32.6154 8.20965C31.7763 9.19267 30.3158 9.48353 29.1277 8.88025C28.7133 8.66966 28.7805 8.5963 28.5192 9.06149C28.1303 9.75367 27.7448 10.4476 27.338 11.1285C27.2026 11.3555 27.252 11.4539 27.4639 11.573C28.1686 11.97 28.8656 12.3826 29.5618 12.796C29.9839 13.0462 30.1916 13.4588 30.1175 13.8662C29.995 14.5376 29.3175 14.8941 28.7031 14.6015C28.492 14.5014 28.2869 14.384 28.0937 14.2528C27.9048 14.1242 27.8103 14.17 27.7014 14.3633C26.8171 15.9332 25.9235 17.4971 25.0316 19.0635C23.2698 22.1576 21.5149 25.256 19.7447 28.3449C18.949 29.7336 17.2783 30.2091 15.869 29.4729C15.6613 29.365 15.4545 29.2511 15.2639 29.1165C15.0553 28.9689 14.9447 29.0146 14.8222 29.2347C14.2111 30.3308 13.5804 31.4157 12.9677 32.5109C12.8 32.8112 12.5924 33.0555 12.2834 33.2048H11.646L11.6468 33.2031ZM18.8664 20.5549C18.8622 21.3325 18.0826 21.7865 17.3813 21.4041C16.8298 21.1038 16.2877 20.7845 15.7549 20.4522C15.5439 20.321 15.4451 20.3616 15.3396 20.5713C15.1847 20.8777 15.0017 21.1685 14.8358 21.4689C14.5668 21.9548 14.4877 21.8685 15.0077 22.1783C15.1447 22.2603 15.2877 22.3337 15.4188 22.4243C15.7805 22.6728 15.9388 23.113 15.8222 23.5273C15.6264 24.2264 14.9217 24.4525 14.2247 24.0408C13.7997 23.7899 13.4661 23.8757 13.2238 24.298C12.8383 24.9703 12.9541 25.4467 13.6162 25.8394C14.6239 26.4375 15.6349 27.0296 16.6485 27.6156C17.2715 27.9755 17.7388 27.8495 18.0962 27.2246C19.4528 24.8504 20.8026 22.4718 22.1626 20.0983C22.2818 19.8903 22.2545 19.7816 22.052 19.6642C20.5694 18.8037 19.0894 17.9372 17.6128 17.0655C17.452 16.9706 17.3703 16.9999 17.286 17.1536C17.0749 17.5394 16.8664 17.9277 16.6358 18.3014C16.5115 18.5025 16.5268 18.607 16.743 18.7252C17.2843 19.0221 17.812 19.344 18.3439 19.659C18.6817 19.8584 18.869 20.151 18.8673 20.5558L18.8664 20.5549ZM22.6894 13.836C22.6869 14.6162 21.903 15.0796 21.2145 14.6973C20.6469 14.3823 20.0894 14.0491 19.5328 13.7143C19.3822 13.6236 19.2954 13.6254 19.206 13.7911C18.9805 14.2053 18.7456 14.6144 18.5064 15.0209C18.4196 15.1677 18.4537 15.2479 18.5932 15.3291C20.0928 16.2025 21.5907 17.0785 23.0852 17.9597C23.2554 18.0598 23.3439 18.0244 23.4375 17.8578C24.2869 16.3552 25.1413 14.8552 26.0001 13.3587C26.1031 13.18 26.0843 13.079 25.9022 12.9738C24.4111 12.1072 22.9226 11.2364 21.4392 10.3569C21.2562 10.2482 21.1839 10.3103 21.0979 10.4691C20.8937 10.8463 20.6903 11.2252 20.4588 11.5851C20.3107 11.8155 20.3847 11.9105 20.5924 12.0252C21.1226 12.3196 21.6409 12.6354 22.1643 12.9435C22.5022 13.1429 22.6903 13.4338 22.6903 13.8377L22.6894 13.836ZM24.9482 2.09744C24.5447 2.0914 24.1609 2.37707 24.0494 2.75768C23.9243 3.18835 24.0886 3.61643 24.5005 3.85895C26.3073 4.92311 28.1158 5.98381 29.9269 7.0402C30.4052 7.31897 30.9805 7.17484 31.235 6.73036C31.498 6.27207 31.3261 5.70418 30.8222 5.40815C29.0418 4.36211 27.2588 3.32126 25.4775 2.27696C25.309 2.17857 25.1303 2.11902 24.9482 2.09744ZM26.9694 7.74187C26.966 7.63312 26.9039 7.5917 26.8384 7.55372C26.4265 7.3112 26.0128 7.07213 25.6026 6.82616C25.4699 6.74676 25.3958 6.78473 25.3235 6.91246C24.8835 7.69612 24.4418 8.47892 23.9924 9.25654C23.9005 9.41534 23.9252 9.50079 24.0801 9.58796C24.469 9.80631 24.8554 10.029 25.235 10.2646C25.4137 10.3759 25.5107 10.3388 25.612 10.1584C26.0333 9.40154 26.4665 8.65067 26.8945 7.89722C26.926 7.84198 26.9499 7.78243 26.9703 7.74187H26.9694Z" fill="#58E2A8"/>
<path id="Vector_2" d="M0.207917 4.6637C0.473731 3.58869 1.07358 2.75003 2.12177 2.24938C3.08402 1.79023 4.07638 1.76143 5.0661 2.16636C5.29115 2.2587 5.37001 2.22735 5.48254 2.01557C6.14264 0.767747 7.19614 0.076488 8.67938 0.0815708C10.1484 0.0866536 11.1913 0.777912 11.8443 2.01388C11.9542 2.22142 12.0277 2.26039 12.2581 2.16805C14.1454 1.41072 16.2701 2.29936 16.9462 4.11561C17.6302 5.95134 16.5678 7.92685 14.5875 8.47833C14.3598 8.54187 14.3128 8.61642 14.3828 8.82905C14.7009 9.79393 14.7798 10.7715 14.5149 11.7627C14.211 12.8995 13.4605 13.6645 12.36 14.1389C11.6264 14.4548 10.8484 14.6277 10.0527 14.6666C8.40825 14.7463 6.75933 14.8098 5.17862 14.2227C3.21515 13.4942 2.52226 11.9084 2.67821 10.0964C2.71631 9.6533 2.80403 9.21873 2.952 8.79601C2.99807 8.66385 3.02288 8.55373 2.83238 8.50459C1.41737 8.13524 0.590688 7.22627 0.220322 5.89797C0.217664 5.88781 0.211461 5.87849 0.207031 5.86917C0.207031 5.46763 0.207031 5.06609 0.207031 4.66455L0.207917 4.6637ZM12.5975 10.5547C12.6267 8.71045 11.1009 6.81287 8.64837 6.78746C6.67604 6.76713 4.99698 8.23012 4.74712 10.1099C4.56459 11.4814 5.08116 12.2625 6.44389 12.5386C7.96257 12.8461 9.49631 12.8495 11.0123 12.5081C12.1376 12.2548 12.5984 11.6534 12.5975 10.5547ZM8.67495 2.02658C7.89789 2.01642 7.21475 2.66108 7.20235 3.41588C7.18994 4.16135 7.86156 4.8128 8.6528 4.82381C9.43252 4.83482 10.1139 4.1927 10.1254 3.43621C10.1369 2.69328 9.46087 2.0359 8.67495 2.02574V2.02658ZM3.67767 6.62481C4.48574 6.6282 5.13432 6.02843 5.15293 5.26008C5.17065 4.52223 4.49105 3.86571 3.70159 3.85978C2.91301 3.853 2.23253 4.4875 2.22544 5.23636C2.21835 5.98777 2.88111 6.62142 3.67678 6.62481H3.67767ZM13.6164 6.62396C14.4378 6.63074 15.1067 6.0064 15.1014 5.23721C15.0961 4.5019 14.436 3.86994 13.6607 3.85893C12.8704 3.84707 12.1925 4.4714 12.1748 5.2262C12.158 5.97252 12.8225 6.61803 13.6164 6.62396Z" fill="#58E2A8"/>
</g>
</svg>
