<svg width="320" height="448" viewBox="0 0 320 448" fill="none" xmlns="http://www.w3.org/2000/svg">
<mask id="mask0_1503_3027" style="mask-type:alpha" maskUnits="userSpaceOnUse" x="0" y="0" width="320" height="448">
<rect width="320" height="448" fill="#D9D9D9"/>
</mask>
<g mask="url(#mask0_1503_3027)">
<path fill-rule="evenodd" clip-rule="evenodd" d="M274.043 124.108C278.733 123.489 282.966 118.8 287.451 120.291C291.78 121.73 293.242 127.1 295.256 131.159C297.164 135.007 298.229 139.045 298.855 143.286C299.565 148.106 300.862 153.076 299.161 157.646C297.355 162.496 293.146 165.889 289.185 169.256C284.539 173.206 280.167 179.003 274.043 179C267.919 178.997 262.829 173.902 258.909 169.243C255.569 165.273 256.331 159.379 253.755 154.885C251.207 150.44 243.446 148.365 244.031 143.286C244.646 137.959 252.577 137.049 256.266 133.123C258.924 130.293 259.076 125.336 262.55 123.574C266.023 121.813 270.176 124.618 274.043 124.108Z" fill="#FCC719"/>
<path fill-rule="evenodd" clip-rule="evenodd" d="M125.747 163.743C125.375 158.704 123.617 152.231 127.285 148.832C131.663 144.773 139.315 148.816 144.656 146.216C148.127 144.527 148.452 139.23 151.61 136.992C155.022 134.573 159.148 133.009 163.304 133C167.556 132.991 171.408 135.227 175.312 136.942C179.551 138.805 184.17 140.177 187.367 143.572C190.669 147.079 192.656 151.726 193.701 156.469C194.751 161.233 196.14 166.947 193.402 170.952C190.36 175.402 183.181 174.303 179.117 177.804C176.233 180.289 176.194 184.885 173.788 187.853C170.869 191.453 168.135 196.681 163.562 196.989C158.919 197.301 156.291 191.116 151.985 189.318C148.06 187.679 143.395 188.935 139.609 186.985C135.494 184.865 131.807 181.705 129.412 177.689C126.932 173.532 126.105 168.595 125.747 163.743Z" fill="#58E2A8"/>
<path fill-rule="evenodd" clip-rule="evenodd" d="M121.581 69.937C117.6 68.2509 116.865 62.2453 117.015 57.9119C117.168 53.4846 121.365 50.1673 122.416 45.8573C123.166 42.7821 121.065 39.3998 122.247 36.4605C123.433 33.511 127.311 32.483 128.902 29.7283C130.853 26.3486 128.961 20.3439 132.501 18.7038C136.215 16.9832 139.91 23.6204 143.909 22.7753C148.312 21.845 149.825 15.3366 154.161 14.1269C158.141 13.0168 162.417 14.8728 166.164 16.567C170.126 18.3587 174.466 20.4407 176.556 24.2528C178.668 28.1068 177.425 32.9154 177.54 37.3215C177.641 41.1655 177.408 44.9169 177.197 48.7587C176.973 52.8534 179.299 58.1606 176.249 60.9217C172.619 64.2072 166.127 60.3228 161.833 62.6682C158.581 64.4447 159.527 70.9969 155.964 72.0018C152.297 73.0362 149.396 68.2784 145.756 67.203C142.985 66.3845 140.063 66.1279 137.185 66.4534C131.848 67.057 126.51 72.0242 121.581 69.937Z" fill="#58AEE2"/>
<path fill-rule="evenodd" clip-rule="evenodd" d="M48.7953 72.0005C55.7041 72.0452 61.3273 75.9589 67.2854 79.454C76.7497 85.0059 93.2077 86.9661 92.998 97.9306C92.7872 108.955 75.5637 109.295 66.592 115.714C60.2378 120.261 56.3063 127.4 48.7953 129.558C38.0841 132.635 24.9093 137.529 16.6366 130.066C8.33125 122.574 10.8809 108.741 13.7355 97.9306C15.9323 89.6109 23.1431 84.3323 30.0643 79.2133C35.6555 75.0781 41.8395 71.9555 48.7953 72.0005Z" fill="#FF63AE"/>
<path fill-rule="evenodd" clip-rule="evenodd" d="M229.708 65.3397C233.189 65.9621 237.01 64.6802 239.987 66.5696C243.033 68.5034 243.866 72.3075 245.617 75.4387C247.893 79.5093 253.191 83.1917 251.758 87.6211C250.326 92.0452 243.827 91.9528 239.609 94.0056C236.288 95.622 233.236 97.2442 229.708 98.3528C224.4 100.021 218.567 105.029 213.853 102.098C209.234 99.2259 212.195 91.824 210.818 86.6069C209.563 81.8554 205.082 77.7817 206.168 72.9897C207.273 68.1127 211.509 63.9 216.316 62.3381C220.773 60.8895 225.09 64.5143 229.708 65.3397Z" fill="#58E2A8"/>
<path fill-rule="evenodd" clip-rule="evenodd" d="M285.979 320.014C299.017 319.497 306.769 333.583 315.677 343.084C324.105 352.072 333.235 360.557 335.356 372.675C337.905 387.247 338.766 404.354 328.221 414.765C317.694 425.16 300.644 423.559 285.979 421.43C273.634 419.638 263.795 412.328 254.48 404.061C244.321 395.044 230.106 386.199 231.044 372.675C231.973 359.295 248.854 354.649 258.554 345.35C267.893 336.397 273.029 320.528 285.979 320.014Z" fill="#FF63AE"/>
<path fill-rule="evenodd" clip-rule="evenodd" d="M113.101 277.516C127.977 280.167 133.022 297.884 143.495 308.771C153.567 319.243 169.883 324.844 172.392 339.153C175.153 354.903 168.286 371.732 156.41 382.445C144.964 392.769 128.477 393.764 113.101 392.635C99.0329 391.601 86.473 385.647 75.7222 376.517C63.7571 366.357 51.3189 354.8 50.12 339.153C48.8576 322.677 57.7098 307.15 69.5217 295.59C81.2043 284.157 97.0055 274.648 113.101 277.516Z" fill="#58E2A8"/>
<path fill-rule="evenodd" clip-rule="evenodd" d="M25.9791 187.938C42.1222 182.645 61.4948 184.166 74.4203 195.271C87.9676 206.91 96.7434 227.03 91.426 244.166C86.5121 260.001 64.0774 259.279 51.313 269.737C41.1958 278.026 38.6594 294.757 25.9791 297.786C11.5515 301.233 -5.94081 297.389 -15.0662 285.595C-23.821 274.28 -18.9435 258.097 -15.5079 244.166C-13.0086 234.031 -4.8861 227.626 1.29436 219.25C9.49981 208.129 12.9137 192.223 25.9791 187.938Z" fill="#FDD85E"/>
<path fill-rule="evenodd" clip-rule="evenodd" d="M268.219 215.039C285.343 213.933 303.564 199.466 317.434 209.559C331.549 219.829 331.431 241.571 328.258 258.725C325.563 273.295 314.919 285.133 302.082 292.554C291.923 298.427 279.819 291.636 268.219 293.433C251.882 295.963 234.794 315.342 221.928 304.97C209.414 294.882 224.615 274.78 225.163 258.725C225.675 243.767 214.475 226.199 224.986 215.534C235.497 204.869 253.268 216.006 268.219 215.039Z" fill="#88C4E8"/>
</g>
</svg>
