<svg width="320" height="269" viewBox="0 0 320 269" fill="none" xmlns="http://www.w3.org/2000/svg">
<path opacity="0.7" fill-rule="evenodd" clip-rule="evenodd" d="M189.172 153.101C203.591 176.761 186.936 208.084 171.606 231.432C159.188 250.345 137.477 259.52 115.524 265.272C97.6194 269.963 79.7955 266.346 62.5083 260.016C45.0568 253.626 29.7167 244.365 18.4344 229.72C2.78529 209.406 -19.839 187.275 -12.5592 162.574C-5.17736 137.527 25.0317 126.664 50.5969 120.59C71.682 115.58 90.6386 128.13 111.656 133.06C138.674 139.399 174.832 129.571 189.172 153.101Z" fill="#FCC719"/>
<path opacity="0.7" fill-rule="evenodd" clip-rule="evenodd" d="M60.9104 -6.17428C69.7502 1.11999 59.8105 15.4278 65.3946 25.179C71.3682 35.6104 90.8697 37.8852 92.6247 49.2067C94.2864 59.9265 80.9535 65.535 72.529 71.2044C65.8789 75.6796 55.2269 73.2399 49.1913 78.4356C42.3731 84.305 43.686 96.351 36.7053 102.043C28.6011 108.651 17.3748 118.519 6.80059 112.999C-4.99255 106.843 -3.71619 89.7553 -9.35118 78.0021C-12.6301 71.163 -15.9751 64.6434 -19.6002 57.9336C-23.2878 51.1083 -29.9952 45.2447 -31.0074 37.9186C-32.0284 30.5292 -26.6804 24.7535 -25.1456 17.7989C-23.2432 9.17868 -26.4163 -1.6174 -20.84 -8.15269C-15.3472 -14.59 -5.3538 -16.8563 3.87862 -16.2164C12.8589 -15.594 20.2089 -6.26793 29.2038 -4.68412C40.0904 -2.7672 52.0393 -13.4943 60.9104 -6.17428Z" fill="#58AEE2"/>
<path fill-rule="evenodd" clip-rule="evenodd" d="M204.917 -39.8526C213.774 -39.6914 222.811 -39.5834 230.855 -35.8506C238.948 -32.0952 245.762 -25.8749 250.874 -18.5275C255.854 -11.3693 257.106 -2.55663 259.798 5.75107C262.717 14.7586 269.985 23.5965 267.486 32.731C264.966 41.9401 253.545 45.2048 247.087 52.2039C241.138 58.6504 237.659 67.007 230.812 72.4753C223.111 78.6243 214.713 85.062 204.917 85.8793C195.023 86.7047 184.596 83.2498 176.869 76.9759C169.395 70.9072 169.258 59.3367 163.098 51.9229C156.747 44.2814 144.559 42.2327 140.462 33.1644C136.376 24.1223 137.873 13.0545 141.334 3.752C144.684 -5.25418 153.042 -11.0094 159.522 -18.0764C165.611 -24.7159 170.419 -32.9157 178.523 -36.8031C186.619 -40.6867 195.95 -40.0158 204.917 -39.8526Z" fill="#FF63AE"/>
<path fill-rule="evenodd" clip-rule="evenodd" d="M332.491 185.447C336.99 178.602 333.58 169.254 337.778 162.235C343.263 153.066 358.738 149.821 359.989 139.476C361.133 130.025 350.667 123.516 343.074 118.454C336.427 114.022 327.999 112.605 319.738 112.639C313.115 112.667 307.25 118.123 300.611 118.633C295.251 119.045 290.587 116.175 285.383 115.279C276.334 113.722 266.619 106.345 258.415 111.371C251.212 115.783 256.82 127.931 252.708 135.294C247.612 144.42 230.952 148.618 232.046 158.592C233.161 168.759 248.297 169.524 257.001 174.439C262.594 177.597 268.575 179.569 274.322 182.463C279.654 185.147 284.42 188.369 289.806 190.953C297.303 194.55 303.888 201.86 312.453 200.755C320.663 199.696 327.823 192.546 332.491 185.447Z" fill="#58E2A8"/>
</svg>
