<svg width="25" height="25" viewBox="0 0 25 25" fill="none" xmlns="http://www.w3.org/2000/svg">
<path d="M20.4651 8.186L14.3256 2.80367C13.7628 2.30027 13.0342 2.02197 12.2791 2.02197C11.524 2.02197 10.7954 2.30027 10.2326 2.80367L4.09305 8.186C3.76804 8.47668 3.50867 8.83326 3.33224 9.23201C3.1558 9.63076 3.06633 10.0625 3.0698 10.4986V19.4418C3.0698 20.256 3.39322 21.0368 3.96891 21.6125C4.54461 22.1882 5.32541 22.5116 6.13957 22.5116H18.4186C19.2328 22.5116 20.0136 22.1882 20.5893 21.6125C21.165 21.0368 21.4884 20.256 21.4884 19.4418V10.4883C21.4904 10.054 21.4002 9.62422 21.2239 9.22734C21.0475 8.83047 20.7889 8.47553 20.4651 8.186ZM14.3256 20.4651H10.2326V15.3488C10.2326 15.0774 10.3404 14.8171 10.5323 14.6252C10.7242 14.4333 10.9845 14.3255 11.2558 14.3255H13.3024C13.5737 14.3255 13.834 14.4333 14.0259 14.6252C14.2178 14.8171 14.3256 15.0774 14.3256 15.3488V20.4651ZM19.4419 19.4418C19.4419 19.7132 19.3341 19.9735 19.1422 20.1654C18.9503 20.3573 18.69 20.4651 18.4186 20.4651H16.3721V15.3488C16.3721 14.5346 16.0487 13.7538 15.473 13.1781C14.8973 12.6024 14.1165 12.279 13.3024 12.279H11.2558C10.4417 12.279 9.66089 12.6024 9.08519 13.1781C8.5095 13.7538 8.18608 14.5346 8.18608 15.3488V20.4651H6.13957C5.86818 20.4651 5.60791 20.3573 5.41602 20.1654C5.22412 19.9735 5.11631 19.7132 5.11631 19.4418V10.4883C5.11649 10.343 5.14762 10.1995 5.2076 10.0671C5.26759 9.9348 5.35507 9.81677 5.46422 9.72088L11.6038 4.34879C11.7905 4.18474 12.0305 4.09427 12.2791 4.09427C12.5277 4.09427 12.7677 4.18474 12.9544 4.34879L19.094 9.72088C19.2031 9.81677 19.2906 9.9348 19.3506 10.0671C19.4106 10.1995 19.4417 10.343 19.4419 10.4883V19.4418Z" fill="#848484"/>
</svg>
